HIERARCHY
ROOT mixamorig:Hips
{
	OFFSET -0.000008 104.274872 1.554316
	CHANNELS 6 Xposition Yposition Zposition Xrotation Yrotation Zrotation
	JOINT mixamorig:Spine
	{
		OFFSET -0.000005 10.181595 0.131519
		CHANNELS 6 Xposition Yposition Zposition Xrotation Yrotation Zrotation
		JOINT mixamorig:Spine1
		{
			OFFSET -0.000000 9.893959 -1.470707
			CHANNELS 6 Xposition Yposition Zposition Xrotation Yrotation Zrotation
			JOINT mixamorig:Spine2
			{
				OFFSET -0.000000 9.220757 -1.370641
				CHANNELS 6 Xposition Yposition Zposition Xrotation Yrotation Zrotation
				JOINT mixamorig:Neck
				{
					OFFSET 0.000001 16.740417 -2.049036
					CHANNELS 6 Xposition Yposition Zposition Xrotation Yrotation Zrotation
					JOINT mixamorig:Head
					{
						OFFSET 0.000000 9.617874 1.685006
						CHANNELS 6 Xposition Yposition Zposition Xrotation Yrotation Zrotation
						JOINT mixamorig:HeadTop_End
						{
							OFFSET 0.000002 22.037354 7.501101
							CHANNELS 6 Xposition Yposition Zposition Xrotation Yrotation Zrotation
							End Site
							{
								OFFSET 0.000168 2310.654297 -282.823242
							}
						}
					}
				}
				JOINT mixamorig:RightShoulder
				{
					OFFSET -4.569970 11.014908 -2.160885
					CHANNELS 6 Xposition Yposition Zposition Xrotation Yrotation Zrotation
					JOINT mixamorig:RightArm
					{
						OFFSET -10.592851 -0.524811 -2.232101
						CHANNELS 6 Xposition Yposition Zposition Xrotation Yrotation Zrotation
						JOINT mixamorig:RightForeArm
						{
							OFFSET -27.841511 0.000031 -0.000004
							CHANNELS 6 Xposition Yposition Zposition Xrotation Yrotation Zrotation
							JOINT mixamorig:RightHand
							{
								OFFSET -28.328831 -0.000015 0.000015
								CHANNELS 6 Xposition Yposition Zposition Xrotation Yrotation Zrotation
								JOINT mixamorig:RightHandThumb1
								{
									OFFSET -2.464806 -1.573990 2.681852
									CHANNELS 6 Xposition Yposition Zposition Xrotation Yrotation Zrotation
									JOINT mixamorig:RightHandThumb2
									{
										OFFSET -3.215179 -1.872803 1.924282
										CHANNELS 6 Xposition Yposition Zposition Xrotation Yrotation Zrotation
										JOINT mixamorig:RightHandThumb3
										{
											OFFSET -2.654831 -1.527969 1.512609
											CHANNELS 6 Xposition Yposition Zposition Xrotation Yrotation Zrotation
											JOINT mixamorig:RightHandThumb4
											{
												OFFSET -2.018814 -1.152008 1.108052
												CHANNELS 6 Xposition Yposition Zposition Xrotation Yrotation Zrotation
												End Site
												{
													OFFSET -188.809540 -114.533607 132.431396
												}
											}
										}
									}
								}
								JOINT mixamorig:RightHandIndex1
								{
									OFFSET -9.108284 -0.517868 2.259835
									CHANNELS 6 Xposition Yposition Zposition Xrotation Yrotation Zrotation
									JOINT mixamorig:RightHandIndex2
									{
										OFFSET -3.699989 0.000000 0.001215
										CHANNELS 6 Xposition Yposition Zposition Xrotation Yrotation Zrotation
										JOINT mixamorig:RightHandIndex3
										{
											OFFSET -2.850006 0.000031 -0.000522
											CHANNELS 6 Xposition Yposition Zposition Xrotation Yrotation Zrotation
											JOINT mixamorig:RightHandIndex4
											{
												OFFSET -2.772186 -0.000015 -0.000020
												CHANNELS 6 Xposition Yposition Zposition Xrotation Yrotation Zrotation
												End Site
												{
													OFFSET -277.218445 0.000000 -0.050231
												}
											}
										}
									}
								}
								JOINT mixamorig:RightHandMiddle1
								{
									OFFSET -9.532516 -0.000031 -0.000023
									CHANNELS 6 Xposition Yposition Zposition Xrotation Yrotation Zrotation
									JOINT mixamorig:RightHandMiddle2
									{
										OFFSET -3.700005 -0.000015 0.003713
										CHANNELS 6 Xposition Yposition Zposition Xrotation Yrotation Zrotation
										JOINT mixamorig:RightHandMiddle3
										{
											OFFSET -2.949974 0.000015 -0.002054
											CHANNELS 6 Xposition Yposition Zposition Xrotation Yrotation Zrotation
											JOINT mixamorig:RightHandMiddle4
											{
												OFFSET -2.946640 0.000000 -0.000156
												CHANNELS 6 Xposition Yposition Zposition Xrotation Yrotation Zrotation
												End Site
												{
													OFFSET -294.664337 0.000000 -0.113670
												}
											}
										}
									}
								}
								JOINT mixamorig:RightHandRing1
								{
									OFFSET -9.103600 -0.043076 -1.865134
									CHANNELS 6 Xposition Yposition Zposition Xrotation Yrotation Zrotation
									JOINT mixamorig:RightHandRing2
									{
										OFFSET -3.379288 0.000000 -0.001055
										CHANNELS 6 Xposition Yposition Zposition Xrotation Yrotation Zrotation
										JOINT mixamorig:RightHandRing3
										{
											OFFSET -2.889687 -0.000015 0.000379
											CHANNELS 6 Xposition Yposition Zposition Xrotation Yrotation Zrotation
											JOINT mixamorig:RightHandRing4
											{
												OFFSET -2.638809 -0.000015 0.000941
												CHANNELS 6 Xposition Yposition Zposition Xrotation Yrotation Zrotation
												End Site
												{
													OFFSET -263.880371 0.000000 0.516020
												}
											}
										}
									}
								}
								JOINT mixamorig:RightHandPinky1
								{
									OFFSET -8.076683 -0.486710 -3.806280
									CHANNELS 6 Xposition Yposition Zposition Xrotation Yrotation Zrotation
									JOINT mixamorig:RightHandPinky2
									{
										OFFSET -3.600014 -0.000015 -0.003747
										CHANNELS 6 Xposition Yposition Zposition Xrotation Yrotation Zrotation
										JOINT mixamorig:RightHandPinky3
										{
											OFFSET -2.099983 0.000000 -0.005739
											CHANNELS 6 Xposition Yposition Zposition Xrotation Yrotation Zrotation
											JOINT mixamorig:RightHandPinky4
											{
												OFFSET -2.115768 -0.000031 -0.003680
												CHANNELS 6 Xposition Yposition Zposition Xrotation Yrotation Zrotation
												End Site
												{
													OFFSET -211.577087 0.000000 -0.350686
												}
											}
										}
									}
								}
							}
						}
					}
				}
				JOINT mixamorig:LeftShoulder
				{
					OFFSET 4.570447 11.014725 -2.160855
					CHANNELS 6 Xposition Yposition Zposition Xrotation Yrotation Zrotation
					JOINT mixamorig:LeftArm
					{
						OFFSET 10.592371 -0.524597 -2.232119
						CHANNELS 6 Xposition Yposition Zposition Xrotation Yrotation Zrotation
						JOINT mixamorig:LeftForeArm
						{
							OFFSET 27.841532 -0.000031 0.000026
							CHANNELS 6 Xposition Yposition Zposition Xrotation Yrotation Zrotation
							JOINT mixamorig:LeftHand
							{
								OFFSET 28.328846 -0.000061 0.000022
								CHANNELS 6 Xposition Yposition Zposition Xrotation Yrotation Zrotation
								JOINT mixamorig:LeftHandThumb1
								{
									OFFSET 2.466141 -1.576172 2.681732
									CHANNELS 6 Xposition Yposition Zposition Xrotation Yrotation Zrotation
									JOINT mixamorig:LeftHandThumb2
									{
										OFFSET 3.217812 -1.872070 1.916482
										CHANNELS 6 Xposition Yposition Zposition Xrotation Yrotation Zrotation
										JOINT mixamorig:LeftHandThumb3
										{
											OFFSET 2.656029 -1.528778 1.514513
											CHANNELS 6 Xposition Yposition Zposition Xrotation Yrotation Zrotation
											JOINT mixamorig:LeftHandThumb4
											{
												OFFSET 2.020889 -1.154053 1.115139
												CHANNELS 6 Xposition Yposition Zposition Xrotation Yrotation Zrotation
												End Site
												{
													OFFSET 190.885437 -115.081749 130.048782
												}
											}
										}
									}
								}
								JOINT mixamorig:LeftHandIndex1
								{
									OFFSET 9.109314 -0.518021 2.259871
									CHANNELS 6 Xposition Yposition Zposition Xrotation Yrotation Zrotation
									JOINT mixamorig:LeftHandIndex2
									{
										OFFSET 3.699989 0.000000 -0.000322
										CHANNELS 6 Xposition Yposition Zposition Xrotation Yrotation Zrotation
										JOINT mixamorig:LeftHandIndex3
										{
											OFFSET 2.850006 0.000000 0.000352
											CHANNELS 6 Xposition Yposition Zposition Xrotation Yrotation Zrotation
											JOINT mixamorig:LeftHandIndex4
											{
												OFFSET 2.774864 -0.000031 -0.000027
												CHANNELS 6 Xposition Yposition Zposition Xrotation Yrotation Zrotation
												End Site
												{
													OFFSET 277.486267 0.000000 -0.009857
												}
											}
										}
									}
								}
								JOINT mixamorig:LeftHandMiddle1
								{
									OFFSET 9.533394 0.000061 0.000044
									CHANNELS 6 Xposition Yposition Zposition Xrotation Yrotation Zrotation
									JOINT mixamorig:LeftHandMiddle2
									{
										OFFSET 3.699989 -0.000015 -0.000231
										CHANNELS 6 Xposition Yposition Zposition Xrotation Yrotation Zrotation
										JOINT mixamorig:LeftHandMiddle3
										{
											OFFSET 2.949997 -0.000015 -0.000059
											CHANNELS 6 Xposition Yposition Zposition Xrotation Yrotation Zrotation
											JOINT mixamorig:LeftHandMiddle4
											{
												OFFSET 2.952896 0.000031 0.000063
												CHANNELS 6 Xposition Yposition Zposition Xrotation Yrotation Zrotation
												End Site
												{
													OFFSET 295.289337 0.000000 0.022810
												}
											}
										}
									}
								}
								JOINT mixamorig:LeftHandRing1
								{
									OFFSET 9.104523 -0.042999 -1.865074
									CHANNELS 6 Xposition Yposition Zposition Xrotation Yrotation Zrotation
									JOINT mixamorig:LeftHandRing2
									{
										OFFSET 3.150009 -0.000031 0.000043
										CHANNELS 6 Xposition Yposition Zposition Xrotation Yrotation Zrotation
										JOINT mixamorig:LeftHandRing3
										{
											OFFSET 2.949982 -0.000015 0.000040
											CHANNELS 6 Xposition Yposition Zposition Xrotation Yrotation Zrotation
											JOINT mixamorig:LeftHandRing4
											{
												OFFSET 2.644348 0.000000 0.000057
												CHANNELS 6 Xposition Yposition Zposition Xrotation Yrotation Zrotation
												End Site
												{
													OFFSET 264.434631 0.000000 0.012105
												}
											}
										}
									}
								}
								JOINT mixamorig:LeftHandPinky1
								{
									OFFSET 8.077789 -0.486847 -3.806259
									CHANNELS 6 Xposition Yposition Zposition Xrotation Yrotation Zrotation
									JOINT mixamorig:LeftHandPinky2
									{
										OFFSET 3.599953 0.000031 0.014727
										CHANNELS 6 Xposition Yposition Zposition Xrotation Yrotation Zrotation
										JOINT mixamorig:LeftHandPinky3
										{
											OFFSET 2.100021 0.000015 0.007705
											CHANNELS 6 Xposition Yposition Zposition Xrotation Yrotation Zrotation
											JOINT mixamorig:LeftHandPinky4
											{
												OFFSET 2.125504 0.000031 0.007517
												CHANNELS 6 Xposition Yposition Zposition Xrotation Yrotation Zrotation
												End Site
												{
													OFFSET 212.550781 0.000000 0.625752
												}
											}
										}
									}
								}
							}
						}
					}
				}
			}
		}
	}
	JOINT mixamorig:RightUpLeg
	{
		OFFSET -8.207787 -6.751648 -1.599560
		CHANNELS 6 Xposition Yposition Zposition Xrotation Yrotation Zrotation
		JOINT mixamorig:RightLeg
		{
			OFFSET -0.000002 -44.370117 0.345942
			CHANNELS 6 Xposition Yposition Zposition Xrotation Yrotation Zrotation
			JOINT mixamorig:RightFoot
			{
				OFFSET 0.000003 -44.423679 -3.043532
				CHANNELS 6 Xposition Yposition Zposition Xrotation Yrotation Zrotation
				JOINT mixamorig:RightToeBase
				{
					OFFSET -0.000002 -8.728671 10.710558
					CHANNELS 6 Xposition Yposition Zposition Xrotation Yrotation Zrotation
					JOINT mixamorig:RightToe_End
					{
						OFFSET -0.000001 -0.000679 9.278119
						CHANNELS 6 Xposition Yposition Zposition Xrotation Yrotation Zrotation
						End Site
						{
							OFFSET 0.000000 -0.067690 927.812134
						}
					}
				}
			}
		}
	}
	JOINT mixamorig:LeftUpLeg
	{
		OFFSET 8.207793 -6.751686 -1.599556
		CHANNELS 6 Xposition Yposition Zposition Xrotation Yrotation Zrotation
		JOINT mixamorig:LeftLeg
		{
			OFFSET -0.000004 -44.370014 0.346954
			CHANNELS 6 Xposition Yposition Zposition Xrotation Yrotation Zrotation
			JOINT mixamorig:LeftFoot
			{
				OFFSET -0.000001 -44.423672 -3.044401
				CHANNELS 6 Xposition Yposition Zposition Xrotation Yrotation Zrotation
				JOINT mixamorig:LeftToeBase
				{
					OFFSET -0.000002 -8.728669 10.710558
					CHANNELS 6 Xposition Yposition Zposition Xrotation Yrotation Zrotation
					JOINT mixamorig:LeftToe_End
					{
						OFFSET -0.000003 -0.000679 9.278133
						CHANNELS 6 Xposition Yposition Zposition Xrotation Yrotation Zrotation
						End Site
						{
							OFFSET 0.000000 -0.068021 927.813477
						}
					}
				}
			}
		}
	}
}
MOTION
Frames: 3
Frame Time: 0.033333
0.000006 104.270477 1.554256 0.000010 0.000003 -0.000113 -0.000005 10.181587 0.131522 0.000001 -0.000003 0.000084 -0.000000 9.893967 -1.470711 0.000001 0.000000 -0.000000 -0.000000 9.220802 -1.370642 0.000000 -0.000000 -0.000000 0.000001 16.740433 -2.049030 0.000000 -0.000000 -0.000000 0.000000 9.617859 1.685014 0.000000 0.000000 0.000000 0.000002 22.037384 7.501101 0.000000 -0.000000 0.000000 -4.569968 11.014880 -2.160881 0.000008 0.000001 -0.000038 -10.592879 -0.524750 -2.231931 73.041995 26.179727 -19.539732 -27.841539 -0.000005 0.000540 -60.281242 108.733313 78.015930 -28.328827 0.000020 0.000019 -0.000317 -0.000044 0.000006 -2.464434 -1.573833 2.682374 -40.961614 -161.433188 6.989369 -3.215281 -1.872614 1.924667 154.967485 30.180301 -5.086944 -2.654941 -1.527877 1.513074 142.499753 27.508616 -42.304033 -2.018830 -1.152019 1.108065 -0.000002 0.000002 0.000000 -9.108384 -0.517545 2.260119 95.903567 15.273549 -16.962553 -3.700078 0.000313 0.001499 94.219161 13.632836 -14.639255 -2.850080 0.000364 -0.000270 93.820216 11.452434 -12.235865 -2.772171 -0.000017 -0.000021 -0.000001 0.000000 -0.000000 -9.532585 0.000266 0.000217 93.291915 13.425285 -14.358410 -3.700069 0.000324 0.003977 93.763710 12.775960 -13.534381 -2.950078 0.000329 -0.001825 93.107424 12.163363 -12.828546 -2.946617 -0.000000 -0.000153 -0.000001 0.000000 -0.000000 -9.103703 -0.042768 -1.864885 91.427772 15.451696 -15.791717 -3.379306 0.000298 -0.000814 93.906816 10.961006 -11.748721 -2.889764 0.000353 0.000638 95.663295 7.933530 -8.807053 -2.638817 -0.000014 0.000940 0.000004 0.000000 0.000000 -8.076756 -0.486399 -3.806051 84.003568 16.766130 -14.981677 -3.600040 0.000280 -0.003520 88.462062 8.632730 -8.058340 -2.100004 0.000321 -0.005497 89.822971 5.297536 -5.063607 -2.115767 -0.000071 -0.003683 -0.000001 -0.000000 -0.000004 4.570446 11.014691 -2.160851 -0.000018 0.000010 -0.000021 10.592398 -0.524475 -2.232343 73.692680 -12.085541 9.071236 27.841837 0.000086 -0.000215 104.933255 -68.151443 82.726855 28.328856 -0.000029 0.000019 0.000024 -0.000089 -0.000001 2.465928 -1.576139 2.681912 -43.909282 163.087869 0.396887 3.217798 -1.871745 1.916380 156.851346 -29.895075 7.251052 2.656112 -1.528651 1.514452 137.306746 -28.524914 46.610959 2.020879 -1.154052 1.115146 -0.000001 0.000002 0.000004 9.109367 -0.517841 2.259749 83.038114 -14.736297 13.050985 3.700047 0.000147 -0.000469 80.124157 -15.752911 13.286554 2.850041 0.000163 0.000198 78.714549 -13.630733 11.195565 2.774874 -0.000013 -0.000027 0.000001 -0.000002 -0.000001 9.533443 0.000218 -0.000108 82.921365 -13.349071 11.797992 3.700058 0.000172 -0.000377 85.257078 -13.936821 12.835516 2.950073 0.000141 -0.000191 83.677283 -17.717461 15.890572 2.952852 -0.000030 0.000064 0.000001 -0.000002 0.000002 9.104574 -0.042835 -1.865233 82.456666 -12.914299 11.329674 3.150046 0.000195 -0.000094 87.563025 -13.121693 12.581370 2.950020 0.000153 -0.000071 87.239144 -15.266311 14.557500 2.644332 0.000028 0.000055 -0.000001 -0.000001 -0.000003 8.077841 -0.486735 -3.806421 69.044463 -15.599913 11.174716 3.599991 0.000152 0.014573 70.909760 -13.345636 9.893504 2.100041 0.000163 0.007549 74.272788 -12.909130 10.166616 2.125499 -0.000014 0.007517 -0.000002 0.000003 -0.000001 -8.207786 -6.751667 -1.599560 -0.077001 -0.000003 0.000080 -0.000002 -44.370110 0.345938 0.153719 -0.000000 -0.000000 0.000000 -44.423679 -3.043532 -0.076700 0.000000 -0.000002 -0.000006 -8.728667 10.710559 -0.000009 -0.000000 -0.000000 -0.000001 -0.000679 9.278123 0.000000 -0.000000 -0.000000 8.207792 -6.751710 -1.599556 -0.074518 -0.000003 0.000081 -0.000002 -44.370014 0.346960 0.148822 0.000002 0.000000 -0.000001 -44.423664 -3.044403 -0.074314 0.000000 -0.000002 -0.000004 -8.728671 10.710558 0.000007 -0.000000 -0.000000 0.000000 -0.000680 9.278137 -0.000000 0.000000 -0.000001 
0.000006 104.270477 1.554256 0.000010 0.000003 -0.000113 -0.000005 10.181587 0.131522 0.000001 -0.000003 0.000084 -0.000000 9.893967 -1.470711 0.000001 0.000000 -0.000000 -0.000000 9.220802 -1.370642 0.000000 -0.000000 -0.000000 0.000001 16.740433 -2.049030 0.000000 -0.000000 -0.000000 0.000000 9.617859 1.685014 0.000000 0.000000 0.000000 0.000002 22.037384 7.501101 0.000000 -0.000000 0.000000 -4.569968 11.014880 -2.160881 0.000008 0.000001 -0.000038 -10.592867 -0.524791 -2.231867 74.004075 38.536477 -29.517530 -27.841522 0.000015 0.000555 -54.472640 104.850493 67.565174 -28.328819 0.000010 0.000023 -0.000318 -0.000042 0.000006 -2.464574 -1.574090 2.682404 6.734222 -153.886716 84.926989 -3.215260 -1.872583 1.924651 159.377014 35.223190 18.743055 -2.654923 -1.527902 1.513097 147.731651 25.796895 -46.531449 -2.018834 -1.151997 1.108061 -0.000001 -0.000001 0.000002 -9.108389 -0.517567 2.260137 102.127734 17.607265 -21.760744 -3.700047 0.000326 0.001529 101.996806 11.718923 -14.416050 -2.850074 0.000391 -0.000242 100.077441 7.611226 -9.076456 -2.772160 -0.000016 -0.000020 -0.000000 0.000000 -0.000001 -9.532588 0.000275 0.000258 97.170069 15.244868 -17.413535 -3.700053 0.000345 0.003979 99.263153 9.738724 -11.337014 -2.950041 0.000344 -0.001778 97.850533 9.488613 -10.870903 -2.946624 0.000002 -0.000163 0.000001 -0.000002 -0.000000 -9.103701 -0.042747 -1.864879 94.232247 16.133079 -17.305370 -3.379317 0.000324 -0.000790 98.623178 10.557026 -12.286859 -2.889759 0.000346 0.000656 98.849209 7.800632 -9.157737 -2.638822 0.000001 0.000938 0.000000 -0.000002 -0.000001 -8.076739 -0.486390 -3.806027 86.576063 17.134925 -16.011598 -3.600055 0.000265 -0.003505 89.802972 11.851526 -11.442312 -2.100017 0.000305 -0.005485 91.708499 8.409761 -8.428845 -2.115759 -0.000042 -0.003680 0.000001 0.000001 -0.000004 4.570446 11.014691 -2.160851 -0.000018 0.000010 -0.000021 10.592400 -0.524480 -2.232351 72.643481 -12.411914 9.141223 27.841824 0.000061 -0.000186 106.062920 -72.350077 88.342077 28.328840 -0.000029 0.000026 0.000022 -0.000088 -0.000000 2.466260 -1.576069 2.681834 6.118507 166.794107 -97.448187 3.217867 -1.871836 1.916412 162.869836 -22.217135 40.289476 2.656098 -1.528679 1.514477 139.335436 -27.674743 54.619599 2.020887 -1.154067 1.115150 -0.000001 0.000001 0.000004 9.109386 -0.517862 2.259749 88.883765 -19.348222 18.969252 3.700037 0.000181 -0.000463 86.489743 -12.556449 11.831104 2.850064 0.000193 0.000196 84.574271 -9.837191 8.949769 2.774885 -0.000031 -0.000034 -0.000003 -0.000001 0.000001 9.533456 0.000217 -0.000084 87.411252 -18.528220 17.714043 3.700042 0.000187 -0.000387 89.140266 -10.341682 10.185888 2.950059 0.000184 -0.000206 88.869688 -10.011122 9.819310 2.952865 -0.000016 0.000065 -0.000001 -0.000001 0.000000 9.104593 -0.042850 -1.865219 85.936115 -18.389979 17.151044 3.150047 0.000206 -0.000097 90.271209 -12.791208 12.853225 2.950021 0.000181 -0.000086 90.611960 -10.555981 10.670435 2.644325 0.000015 0.000057 -0.000001 -0.000001 0.000000 8.077846 -0.486736 -3.806399 76.251925 -20.649183 16.759532 3.600002 0.000169 0.014580 75.992603 -18.202801 14.690263 2.100031 0.000167 0.007548 77.524915 -13.239980 11.043367 2.125498 -0.000015 0.007513 0.000000 -0.000000 -0.000001 -8.207786 -6.751667 -1.599560 -0.077001 -0.000003 0.000080 -0.000002 -44.370110 0.345938 0.153719 -0.000000 -0.000000 0.000000 -44.423679 -3.043532 -0.076700 0.000000 -0.000002 -0.000006 -8.728667 10.710559 -0.000009 -0.000000 -0.000000 -0.000001 -0.000679 9.278123 0.000000 -0.000000 -0.000000 8.207792 -6.751710 -1.599556 -0.074518 -0.000003 0.000081 -0.000002 -44.370014 0.346960 0.148822 0.000002 0.000000 -0.000001 -44.423664 -3.044403 -0.074314 0.000000 -0.000002 -0.000004 -8.728671 10.710558 0.000007 -0.000000 -0.000000 0.000000 -0.000680 9.278137 -0.000000 0.000000 -0.000001 
0.000006 104.270477 1.554256 0.000010 0.000003 -0.000113 -0.000005 10.181587 0.131522 0.000001 -0.000003 0.000084 -0.000000 9.893967 -1.470711 0.000001 0.000000 -0.000000 -0.000000 9.220802 -1.370642 0.000000 -0.000000 -0.000000 0.000001 16.740433 -2.049030 0.000000 -0.000000 -0.000000 0.000000 9.617859 1.685014 0.000000 0.000000 0.000000 0.000002 22.037384 7.501101 0.000000 -0.000000 0.000000 -4.569968 11.014880 -2.160881 0.000008 0.000001 -0.000038 -10.592817 -0.524830 -2.231787 73.847083 55.883679 -43.462741 -27.841522 -0.000036 0.000557 -34.722325 99.130661 40.295767 -28.328833 -0.000005 0.000027 -0.000320 -0.000047 0.000009 -2.464855 -1.574145 2.682264 62.731319 -186.879850 151.484307 -3.215176 -1.872946 1.924745 212.305557 5.017622 -42.156354 -2.654802 -1.528023 1.513210 164.132369 7.155003 -88.414340 -2.018815 -1.152000 1.108070 -0.000004 -0.000005 0.000000 -9.108410 -0.517670 2.260295 128.574541 24.800000 -49.179309 -3.700071 0.000187 0.001693 130.975352 19.053141 -40.356825 -2.850112 0.000294 -0.000080 130.616522 13.629169 -29.136924 -2.772157 -0.000017 -0.000017 0.000001 0.000000 0.000000 -9.532617 0.000183 0.000422 128.161670 20.035545 -40.247023 -3.700071 0.000254 0.004167 133.134621 11.976281 -26.988441 -2.950048 0.000294 -0.001611 132.949537 11.032115 -24.998566 -2.946636 0.000001 -0.000156 -0.000000 0.000001 0.000002 -9.103703 -0.042824 -1.864697 125.487268 18.753416 -35.458265 -3.379370 0.000256 -0.000623 130.604132 12.009787 -25.805809 -2.889774 0.000287 0.000819 130.958127 8.612221 -18.850313 -2.638793 0.000003 0.000942 -0.000000 -0.000000 -0.000000 -8.076763 -0.486441 -3.805857 119.089020 20.321672 -33.644501 -3.600088 0.000212 -0.003327 125.432627 15.986741 -29.713106 -2.100049 0.000216 -0.005286 129.220854 11.294809 -23.035083 -2.115771 -0.000049 -0.003676 0.000003 -0.000001 -0.000002 4.570446 11.014691 -2.160851 -0.000018 0.000010 -0.000021 10.592508 -0.524500 -2.232404 69.760281 -52.777596 38.158150 27.841803 0.000010 -0.000173 100.403876 -82.660329 93.100314 28.328831 -0.000053 0.000021 0.000020 -0.000090 0.000003 2.466233 -1.575987 2.681832 28.638391 172.055771 -123.469753 3.217868 -1.871831 1.916440 175.099563 -15.532195 49.209686 2.656108 -1.528684 1.514497 151.069905 -22.687457 60.187279 2.020899 -1.154054 1.115148 0.000001 0.000001 0.000002 9.109384 -0.517876 2.259747 87.615966 -23.366364 22.425796 3.700055 0.000165 -0.000442 91.393819 -15.683957 16.083019 2.850044 0.000214 0.000206 92.273042 -10.850513 11.285634 2.774865 -0.000047 -0.000025 0.000003 -0.000003 -0.000000 9.533446 0.000211 -0.000092 89.309942 -18.879550 18.648534 3.700049 0.000194 -0.000367 92.902034 -9.858317 10.365269 2.950056 0.000203 -0.000209 94.032007 -8.235076 8.836684 2.952871 -0.000015 0.000065 0.000000 -0.000000 0.000001 9.104587 -0.042830 -1.865217 90.989116 -16.918201 17.210441 3.150060 0.000220 -0.000111 93.987494 -11.457769 12.280098 2.950014 0.000216 -0.000079 97.426228 -7.943921 9.044165 2.644315 0.000046 0.000055 -0.000001 -0.000000 0.000001 8.077839 -0.486692 -3.806404 90.290046 -17.593505 18.275966 3.600003 0.000241 0.014575 95.969820 -13.196585 15.196896 2.100045 0.000258 0.007562 101.709344 -9.732589 12.518349 2.125474 -0.000015 0.007513 0.000000 -0.000000 -0.000000 -8.207786 -6.751667 -1.599560 -0.077001 -0.000003 0.000080 -0.000002 -44.370110 0.345938 0.153719 -0.000000 -0.000000 0.000000 -44.423679 -3.043532 -0.076700 0.000000 -0.000002 -0.000006 -8.728667 10.710559 -0.000009 -0.000000 -0.000000 -0.000001 -0.000679 9.278123 0.000000 -0.000000 -0.000000 8.207792 -6.751710 -1.599556 -0.074518 -0.000003 0.000081 -0.000002 -44.370014 0.346960 0.148822 0.000002 0.000000 -0.000001 -44.423664 -3.044403 -0.074314 0.000000 -0.000002 -0.000004 -8.728671 10.710558 0.000007 -0.000000 -0.000000 0.000000 -0.000680 9.278137 -0.000000 0.000000 -0.000001 
